HIERARCHY
ROOT Hips
{
	OFFSET 0.000000 0.000000 0.000000
	CHANNELS 6 Xposition Yposition Zposition Zrotation Yrotation Xrotation 
	JOINT LHipJoint
	{
		OFFSET 0.000000 0.000000 0.000000
		CHANNELS 3 Zrotation Yrotation Xrotation
		JOINT LeftUpLeg
		{
			OFFSET 1.363060 -1.794630 0.839290
			CHANNELS 3 Zrotation Yrotation Xrotation
			JOINT LeftLeg
			{
				OFFSET 2.448110 -6.726130 0.000000
				CHANNELS 3 Zrotation Yrotation Xrotation
				JOINT LeftFoot
				{
					OFFSET 2.562200 -7.039590 0.000000
					CHANNELS 3 Zrotation Yrotation Xrotation
					JOINT LeftToeBase
					{
						OFFSET 0.157640 -0.433110 2.322550
						CHANNELS 3 Zrotation Yrotation Xrotation
						End Site
						{
							OFFSET 0.000000 0.000000 0.000000
						}
					}
				}
			}
		}
	}
	JOINT RHipJoint
	{
		OFFSET 0.000000 0.000000 0.000000
		CHANNELS 3 Zrotation Yrotation Xrotation
		JOINT RightUpLeg
		{
			OFFSET -1.305520 -1.794630 0.839290
			CHANNELS 3 Zrotation Yrotation Xrotation
			JOINT RightLeg
			{
				OFFSET -2.542530 -6.985550 0.000000
				CHANNELS 3 Zrotation Yrotation Xrotation
				JOINT RightFoot
				{
					OFFSET -2.568260 -7.056230 0.000000
					CHANNELS 3 Zrotation Yrotation Xrotation
					JOINT RightToeBase
					{
						OFFSET -0.164730 -0.452590 2.363150
						CHANNELS 3 Zrotation Yrotation Xrotation
						End Site
						{
							OFFSET 0.000000 0.000000 0.000000
						}
					}
				}
			}
		}
	}
	JOINT LowerBack
	{
		OFFSET 0.000000 0.000000 0.000000
		CHANNELS 3 Zrotation Yrotation Xrotation
		JOINT Spine
		{
			OFFSET 0.028270 2.035590 -0.193380
			CHANNELS 3 Zrotation Yrotation Xrotation
			JOINT Spine1
			{
				OFFSET 0.056720 2.048850 -0.042750
				CHANNELS 3 Zrotation Yrotation Xrotation
				JOINT Neck
				{
					OFFSET 0.000000 0.000000 0.000000
					CHANNELS 3 Zrotation Yrotation Xrotation
					JOINT Neck1
					{
						OFFSET -0.054170 1.746240 0.172020
						CHANNELS 3 Zrotation Yrotation Xrotation
						JOINT Head
						{
							OFFSET 0.104070 1.761360 -0.123970
							CHANNELS 3 Zrotation Yrotation Xrotation
							End Site
							{
								OFFSET 0.000000 0.000000 0.000000
							}
						}
					}
				}
				JOINT LeftShoulder
				{
					OFFSET 0.000000 0.000000 0.000000
					CHANNELS 3 Zrotation Yrotation Xrotation
					JOINT LeftArm
					{
						OFFSET 3.362410 1.200890 -0.311210
						CHANNELS 3 Zrotation Yrotation Xrotation
						JOINT LeftForeArm
						{
							OFFSET 4.983000 -0.000000 -0.000000
							CHANNELS 3 Zrotation Yrotation Xrotation
							JOINT LeftHand
							{
								OFFSET 3.483560 -0.000000 -0.000000
								CHANNELS 3 Zrotation Yrotation Xrotation
								JOINT LeftFingerBase
								{
									OFFSET 0.000000 0.000000 0.000000
									CHANNELS 3 Zrotation Yrotation Xrotation
									JOINT LeftHandIndex1
									{
										OFFSET 0.715260 -0.000000 -0.000000
										CHANNELS 3 Zrotation Yrotation Xrotation
										End Site
										{
											OFFSET 0.000000 0.000000 0.000000
										}
									}
								}
								JOINT LThumb
								{
									OFFSET 0.000000 0.000000 0.000000
									CHANNELS 3 Zrotation Yrotation Xrotation
									End Site
									{
										OFFSET 0.000000 0.000000 0.000000
									}
								}
							}
						}
					}
				}
				JOINT RightShoulder
				{
					OFFSET 0.000000 0.000000 0.000000
					CHANNELS 3 Zrotation Yrotation Xrotation
					JOINT RightArm
					{
						OFFSET -3.136600 1.374050 -0.404650
						CHANNELS 3 Zrotation Yrotation Xrotation
						JOINT RightForeArm
						{
							OFFSET -5.241900 -0.000000 -0.000000
							CHANNELS 3 Zrotation Yrotation Xrotation
							JOINT RightHand
							{
								OFFSET -3.444170 -0.000000 -0.000000
								CHANNELS 3 Zrotation Yrotation Xrotation
								JOINT RightFingerBase
								{
									OFFSET 0.000000 0.000000 0.000000
									CHANNELS 3 Zrotation Yrotation Xrotation
									JOINT RightHandIndex1
									{
										OFFSET -0.622530 -0.000000 -0.000000
										CHANNELS 3 Zrotation Yrotation Xrotation
										End Site
										{
											OFFSET 0.000000 0.000000 0.000000
										}
									}
								}
								JOINT RThumb
								{
									OFFSET 0.000000 0.000000 0.000000
									CHANNELS 3 Zrotation Yrotation Xrotation
									End Site
									{
										OFFSET 0.000000 0.000000 0.000000
									}
								}
							}
						}
					}
				}
			}
		}
	}
}
MOTION
Frames: 7
Frame Time: 0.008333
5.072532 17.351155 1.403572 -176.042648 -61.550897 -174.208462 -12.412456 3.833950 -1.420591 -8.895019 33.819455 -13.572283 -3.435394 -0.981872 -2.433194 1.198567 8.929539 -1.784009 0.841399 -0.000000 -26.471800 8.408492 -1.425589 5.202890 3.965921 7.762314 -12.749418 3.564070 2.007383 -2.351077 1.362345 6.714173 5.491943 0.756100 -0.000001 -37.279500 5.604553 -6.641930 -5.518569 1.178722 -7.158877 -3.818939 -5.169472 -7.197826 -0.203489 9.793733 -7.487497 0.666330 -1.584895 -0.235941 2.297939 0.000000 0.000000 0.000000 14.421549 -5.773401 4.176667 -29.666696 -34.276775 18.506819 -3.406155 -25.905843 -0.054034 -13.093828 20.115390 -2.327273 -0.100111 -0.091320 0.000000 0.000000 0.000000 0.000000 0.000000 0.000000 0.000000 3.526574 -10.988260 -8.379051 51.285826 65.469313 -18.970217 -175.430450 64.329728 179.718593 -18.048873 13.006103 -2.238355 0.038655 -0.954736 -0.000000 0.000000 0.000000 0.000000 0.000000 0.000000 0.000000 
5.067895 17.345329 1.398540 -176.277828 -61.258217 -174.173499 -12.420212 3.840498 -1.492925 -8.794419 33.940399 -13.358989 -3.430058 -0.952345 -2.115596 1.228984 9.132096 -2.025266 0.816100 -0.000001 -26.463400 8.404581 -1.410462 5.197783 3.853294 7.984651 -12.583141 3.538377 1.981220 -2.154874 1.355989 6.762939 5.280842 0.754499 -0.000000 -37.234300 5.664895 -6.643439 -5.423873 1.194362 -7.162524 -3.811269 -5.199865 -7.208252 -0.176068 9.545799 -7.790629 0.564481 -1.622214 -0.236296 2.272741 0.000000 0.000000 0.000000 12.415215 -5.354164 3.961139 -32.025148 -32.387850 18.673937 -2.974604 -30.751298 -0.049926 -8.354490 19.764072 -1.438884 -0.133373 -0.036691 0.000000 0.000000 0.000000 0.000000 0.000000 0.000000 0.000000 3.204023 -11.108142 -8.130874 49.303637 64.765836 -20.519608 -175.503545 63.774268 179.721905 -18.086206 12.741320 -2.200894 0.052407 -0.950694 0.000000 0.000000 0.000000 0.000000 0.000000 0.000000 0.000000 
5.064050 17.339290 1.391771 -176.528659 -60.950718 -174.096594 -12.421177 3.839425 -1.572916 -8.719996 34.065334 -13.198642 -3.429030 -0.921380 -1.747147 1.261374 9.344466 -2.283996 0.787299 0.000000 -26.456600 8.404089 -1.392999 5.190894 3.735965 8.198146 -12.482582 3.511797 1.949043 -1.904234 1.353036 6.856678 5.043219 0.761400 -0.000000 -37.218900 5.669977 -6.624867 -5.318962 1.197274 -7.143793 -3.811253 -5.240799 -7.198916 -0.189635 9.348648 -8.007913 0.465117 -1.641701 -0.235748 2.248935 0.000000 0.000000 0.000000 10.305319 -4.867131 3.737147 -33.911931 -30.406925 18.648405 -2.582080 -36.021356 -0.043936 -4.627224 18.338130 -0.723647 -0.146540 0.019684 0.000000 0.000000 0.000000 0.000000 0.000000 0.000000 0.000000 2.835044 -11.126413 -7.862486 47.276718 63.844156 -22.225186 -175.577196 63.111669 179.724131 -18.281811 12.423129 -2.174114 0.072156 -0.945888 -0.000000 0.000000 0.000000 0.000000 0.000000 0.000000 0.000000 
5.060539 17.333282 1.383560 -176.779426 -60.633823 -173.985700 -12.416361 3.830871 -1.656394 -8.673237 34.197340 -13.098428 -3.432630 -0.890611 -1.343501 1.294269 9.557256 -2.550588 0.755700 -0.000000 -26.453900 8.405690 -1.375421 5.186263 3.619508 8.401867 -12.456506 3.485590 1.911612 -1.600724 1.353491 6.991792 4.784018 0.775600 0.000000 -37.222100 5.629005 -6.584127 -5.213874 1.191361 -7.101576 -3.812629 -5.283593 -7.167916 -0.209428 9.195864 -8.151055 0.344955 -1.640904 -0.233746 2.219493 0.000000 0.000000 0.000000 8.191472 -4.205099 3.531891 -35.488292 -28.611657 18.604128 -2.270971 -41.441933 -0.035741 -2.475976 16.347328 -0.334103 -0.141209 0.068854 0.000000 0.000000 0.000000 0.000000 0.000000 0.000000 0.000000 2.409538 -11.062923 -7.597922 45.302453 62.721361 -24.006289 -175.647104 62.358745 179.725223 -18.633897 12.055158 -2.156522 0.097389 -0.939871 -0.000000 0.000000 0.000000 0.000000 0.000000 0.000000 0.000000 
5.057014 17.327588 1.374285 -177.016890 -60.310158 -173.850004 -12.407183 3.815815 -1.739417 -8.654104 34.341221 -13.063320 -3.441038 -0.861022 -0.918867 1.326343 9.762066 -2.815586 0.722300 -0.000001 -26.455100 8.407758 -1.359472 5.188128 3.508830 8.598075 -12.508307 3.461107 1.870198 -1.251444 1.357314 7.161979 4.512580 0.795500 0.000000 -37.231600 5.554878 -6.523008 -5.118698 1.181139 -7.038733 -3.810792 -5.319734 -7.116733 -0.209005 9.076308 -8.235192 0.187698 -1.619033 -0.229966 2.179465 0.000000 0.000000 0.000000 6.187689 -3.317065 3.363545 -36.952671 -27.151703 18.627826 -2.048098 -46.785189 -0.024950 -2.016162 14.385630 -0.236990 -0.121206 0.105336 0.000000 0.000000 0.000000 0.000000 0.000000 0.000000 0.000000 1.921292 -10.930807 -7.356163 43.468164 61.431932 -25.783346 -175.709102 61.542626 179.725268 -19.122422 11.645667 -2.145023 0.126948 -0.932335 -0.000000 0.000000 0.000000 0.000000 0.000000 0.000000 0.000000 
5.052961 17.322528 1.364190 -177.230453 -59.982372 -173.694239 -12.395102 3.795493 -1.815918 -8.663649 34.487417 -13.092628 -3.452453 -0.834170 -0.494972 1.358139 9.964030 -3.068733 0.689600 0.000000 -26.456000 8.408574 -1.346556 5.200085 3.407607 8.789430 -12.638237 3.439544 1.826586 -0.868724 1.364211 7.358007 4.239599 0.819301 0.000000 -37.228400 5.461713 -6.444651 -5.044140 1.170712 -6.959439 -3.804783 -5.342983 -7.048072 -0.177768 8.976165 -8.277829 -0.009323 -1.578382 -0.224483 2.127923 0.000000 0.000000 0.000000 4.388094 -2.216608 3.232209 -38.479267 -26.039715 18.756850 -1.888640 -51.910901 -0.012500 -2.924887 13.021208 -0.319449 -0.091618 0.126524 0.000000 0.000000 0.000000 0.000000 0.000000 0.000000 0.000000 1.372369 -10.744029 -7.146653 41.834199 60.022081 -27.489410 -175.761045 60.695420 179.724474 -19.712324 11.209870 -2.136222 0.159300 -0.923304 -0.000000 0.000000 0.000000 0.000000 0.000000 0.000000 0.000000 
5.048071 17.318413 1.353544 -177.411539 -59.655446 -173.525735 -12.381364 3.770837 -1.882715 -8.700150 34.632844 -13.183654 -3.465872 -0.810940 -0.086155 1.389415 10.162428 -3.302662 0.659200 0.000000 -26.452301 8.406759 -1.338129 5.224694 3.318995 8.980163 -12.838734 3.421702 1.782486 -0.469907 1.373587 7.567820 3.978474 0.845100 0.000000 -37.201001 5.361377 -6.351081 -4.996803 1.163022 -6.866057 -3.796952 -5.348709 -6.963506 -0.121182 8.880814 -8.297715 -0.234756 -1.524354 -0.217777 2.068042 0.000000 0.000000 0.000000 2.859763 -0.972218 3.121767 -40.212612 -25.191283 18.980034 -1.760638 -56.745276 0.000686 -4.748047 12.439277 -0.505104 -0.055900 0.133478 0.000000 0.000000 0.000000 0.000000 0.000000 0.000000 0.000000 0.774751 -10.520556 -6.969340 40.425731 58.544162 -29.080560 -175.803624 59.854270 179.723149 -20.357453 10.764397 -2.126525 0.192700 -0.913075 -0.000000 0.000000 0.000000 0.000000 0.000000 0.000000 0.000000 
